# xmcd CD database file
#
# Track frame offsets:
#	150
#	14567
#	33126
#	59038
#	83704
#	99547
#	116487
#	138338
#	166124
#	179019
#	198077
#
# Disc length: 2960 seconds
#
# Revision: 1
# Processed by: cddbd v1.5.2PL0 Copyright (c) Steve Scherf et al.
# Submitted via: CDex 1.70beta2
#
DISCID=8d0b8e0b
DTITLE=UI-70 - the Splendid World - スバラシイセカイ
DYEAR=2009
DGENRE=東方アレンジ
TTITLE0=地霊達の起床
TTITLE1=厄神様の通り道　～ Dark Road
TTITLE2=時代親父とハイカラ少女
TTITLE3=人形裁判 ～ 人の形弄びし少女
TTITLE4=幽霊楽団 ～ Phantom Ensemble
TTITLE5=クリスタライズシルバー
TTITLE6=キャプテン・ムラサ
TTITLE7=暗闇の風穴
TTITLE8=緑眼のジェラシー
TTITLE9=廃獄ララバイ
TTITLE10=死体旅行 ～ Be of good cheer!
EXTD=YEAR: 2009
EXTT0=
EXTT1=
EXTT2=
EXTT3=
EXTT4=
EXTT5=
EXTT6=
EXTT7=
EXTT8=
EXTT9=
EXTT10=
PLAYORDER=
